<svg width="17" height="20" viewBox="0 0 17 20" fill="none" xmlns="http://www.w3.org/2000/svg">
<path d="M2.74995 19.3C2.24995 19.3 1.82495 19.125 1.47495 18.775C1.12495 18.425 0.949951 18 0.949951 17.5V4.79999H2.44995V17.5C2.44995 17.5833 2.47895 17.654 2.53695 17.712C2.59562 17.7707 2.66662 17.8 2.74995 17.8H12.45V19.3H2.74995ZM6.24995 15.8C5.74995 15.8 5.32495 15.625 4.97495 15.275C4.62495 14.925 4.44995 14.5 4.44995 14V2.62499C4.44995 2.10832 4.62495 1.67499 4.97495 1.32499C5.32495 0.974988 5.74995 0.799988 6.24995 0.799988H14.625C15.1416 0.799988 15.575 0.974988 15.925 1.32499C16.275 1.67499 16.45 2.10832 16.45 2.62499V14C16.45 14.5 16.275 14.925 15.925 15.275C15.575 15.625 15.1416 15.8 14.625 15.8H6.24995ZM6.24995 14.3H14.625C14.7083 14.3 14.7833 14.2707 14.85 14.212C14.9166 14.154 14.95 14.0833 14.95 14V2.62499C14.95 2.54165 14.9166 2.46665 14.85 2.39999C14.7833 2.33332 14.7083 2.29999 14.625 2.29999H6.24995C6.16662 2.29999 6.09595 2.33332 6.03795 2.39999C5.97928 2.46665 5.94995 2.54165 5.94995 2.62499V14C5.94995 14.0833 5.97928 14.154 6.03795 14.212C6.09595 14.2707 6.16662 14.3 6.24995 14.3Z" fill="white"/>
</svg>
