<svg width="14" height="15" viewBox="0 0 14 15" fill="none" xmlns="http://www.w3.org/2000/svg">
<path d="M3.08333 14.0833C2.66667 14.0833 2.3125 13.9375 2.02083 13.6458C1.72917 13.3542 1.58333 13 1.58333 12.5833V2.00001H0.75V0.75001H4.5V0.0208435H9.5V0.75001H13.25V2.00001H12.4167V12.5833C12.4167 13 12.2708 13.3542 11.9792 13.6458C11.6875 13.9375 11.3333 14.0833 10.9167 14.0833H3.08333ZM11.1667 2.00001H2.83333V12.5833C2.83333 12.6528 2.85778 12.712 2.90667 12.7608C2.955 12.8092 3.01389 12.8333 3.08333 12.8333H10.9167C10.9722 12.8333 11.0278 12.8056 11.0833 12.75C11.1389 12.6945 11.1667 12.6389 11.1667 12.5833V2.00001ZM4.83333 11.1667H6.08333V3.66668H4.83333V11.1667ZM7.91667 11.1667H9.16667V3.66668H7.91667V11.1667ZM2.83333 2.00001V12.8333V12.5833V2.00001Z" fill="#5F6368"/>
</svg>
